<mxfile host="app.diagrams.net" modified="2024-02-18T02:24:27.511Z" agent="Mozilla/5.0 (X11; Linux x86_64) AppleWebKit/537.36 (KHTML, like Gecko) Chrome/121.0.0.0 Safari/537.36" etag="6G5IZNqRDBf_ZCEyR8fn" version="23.1.5" type="github">
  <diagram name="Page-1" id="3BpWsqQEr3Zo0roczmAX">
    <mxGraphModel dx="1434" dy="905" grid="1" gridSize="10" guides="1" tooltips="1" connect="1" arrows="1" fold="1" page="1" pageScale="1" pageWidth="827" pageHeight="1169" math="0" shadow="0">
      <root>
        <mxCell id="0" />
        <mxCell id="1" parent="0" />
        <mxCell id="F7oVaFTzvIaRhSeapFYE-3" value="" style="edgeStyle=orthogonalEdgeStyle;rounded=0;orthogonalLoop=1;jettySize=auto;html=1;" edge="1" parent="1" source="F7oVaFTzvIaRhSeapFYE-1" target="F7oVaFTzvIaRhSeapFYE-2">
          <mxGeometry relative="1" as="geometry" />
        </mxCell>
        <mxCell id="F7oVaFTzvIaRhSeapFYE-1" value="boot_count" style="rounded=0;whiteSpace=wrap;html=1;" vertex="1" parent="1">
          <mxGeometry x="200" y="280" width="100" height="30" as="geometry" />
        </mxCell>
        <mxCell id="F7oVaFTzvIaRhSeapFYE-2" value="Contains an unsigned integer, incremented on each boot" style="whiteSpace=wrap;html=1;rounded=0;" vertex="1" parent="1">
          <mxGeometry x="370" y="265" width="180" height="60" as="geometry" />
        </mxCell>
        <mxCell id="F7oVaFTzvIaRhSeapFYE-6" value="" style="edgeStyle=orthogonalEdgeStyle;rounded=0;orthogonalLoop=1;jettySize=auto;html=1;" edge="1" parent="1" source="F7oVaFTzvIaRhSeapFYE-4" target="F7oVaFTzvIaRhSeapFYE-5">
          <mxGeometry relative="1" as="geometry" />
        </mxCell>
        <mxCell id="F7oVaFTzvIaRhSeapFYE-4" value="data_1" style="rounded=0;whiteSpace=wrap;html=1;" vertex="1" parent="1">
          <mxGeometry x="200" y="370" width="100" height="30" as="geometry" />
        </mxCell>
        <mxCell id="F7oVaFTzvIaRhSeapFYE-5" value="Contains readings from the first boot" style="whiteSpace=wrap;html=1;rounded=0;" vertex="1" parent="1">
          <mxGeometry x="370" y="362.5" width="180" height="45" as="geometry" />
        </mxCell>
        <mxCell id="F7oVaFTzvIaRhSeapFYE-7" value="" style="edgeStyle=orthogonalEdgeStyle;rounded=0;orthogonalLoop=1;jettySize=auto;html=1;" edge="1" parent="1" source="F7oVaFTzvIaRhSeapFYE-8" target="F7oVaFTzvIaRhSeapFYE-9">
          <mxGeometry relative="1" as="geometry" />
        </mxCell>
        <mxCell id="F7oVaFTzvIaRhSeapFYE-8" value="data_2" style="rounded=0;whiteSpace=wrap;html=1;" vertex="1" parent="1">
          <mxGeometry x="200" y="447.5" width="100" height="30" as="geometry" />
        </mxCell>
        <mxCell id="F7oVaFTzvIaRhSeapFYE-9" value="Contains readings from the second boot" style="whiteSpace=wrap;html=1;rounded=0;" vertex="1" parent="1">
          <mxGeometry x="370" y="440" width="180" height="45" as="geometry" />
        </mxCell>
        <mxCell id="F7oVaFTzvIaRhSeapFYE-10" value="..." style="rounded=0;whiteSpace=wrap;html=1;strokeColor=none;fillColor=none;fontSize=49;" vertex="1" parent="1">
          <mxGeometry x="190" y="500" width="360" height="20" as="geometry" />
        </mxCell>
      </root>
    </mxGraphModel>
  </diagram>
</mxfile>
